SKINS OVERVIEW:

Skins is a BAFTA-winning British teen drama that follows a group of teenagers in Bristol, South West England, through the two years of sixth form. The controversial plot line explores issues such as dysfunctional families, mental illness (including eating disorders), sexual orientation identity, substance abuse and death. The show was created by father and son television writers Bryan Elsley and Jamie Brittain for Company Pictures, and premiered on E4 on 25 January 2007.

Skins has broadcast five seasons, and has been commissioned up to a sixth. In the UK, the show is currently on its fifth series, which introduces a third generation of Bristolian teenagers. A Skins film, focusing on characters from the show's first four series, is also in production. The Skins brand has also been exported overseas; an American adaptation began airing on MTV in 2011, where it has been subject to significantly more controversy than the UK original despite the show becoming less racy due to American FCC regulations.

###################################################################################


SEASON THREE DESCRIPTION:

We are introduced to the new cast on their first day at Roundview College in the series premiere, "Everyone". JJ Jones, James Cook and Freddie McClair are best friends to begin with; twins Katie and Emily Fitch know Naomi Campbell from school but are distant with her because Katie is homophobic and suspects her of being a lesbian. The gang meet Effy, and sidekick Pandora; Katie wants to become Effy's best friend, and both Cook and Freddie are instantly smitten. Cook passes the test set by Effy and begins a casual sex relationship with her. Episode two focuses on Cook who invites the whole group over, but their friendships are not very strong yet; chaos ensues, and Cook angers local gangster Johnny White (Mackenzie Crook). Thomas Tomone is only introduced in the third episode. He is a immigrant from the Congo, and develops a crush on Pandora. He endears himself to the group when he is able to get Johnny White off their backs by besting him in a pepper-eating competition. However, despairing at his decadent life in Bristol, Mrs Tomone brings Thomas back to the Congo. In "Pandora", Pandora's innocent slumber party becomes an MDMA-fuelled rave after Katie spikes the brownies. Emily and Naomi kiss; Naomi denies being gay, but urges Emily to admit that she is, who also denies it. Pandora allows Cook to take her virginity, but regrets it when later Thomas returns from Congo.

Freddie's episode shows his difficult relationship with his widower father (Simon Day) and his sister Karen (Klariza Clayton), who has ambitions to be a celebrity. His father converts Freddie's shed—his personal sanctuary—into a dance studio for Karen. He witnesses Effy's parents' breakup, discovers that Cook slept with his sister, gets punched in the face by his father, and when he goes to tell Effy how he feels about her discovers she is with Cook. In "Naomi", Naomi runs against Cook for student president on the basis that if he wins she will have to sleep with him; when he wins however, he does not force her to take it further than kissing. She and Emily begin a sexual relationship, but Naomi is unwilling to accept the reality of its romantic nature. In "JJ", Freddie and Cook's feud over Effy negatively affects JJ. At Emily's encouragement, he manages to confront them both about it, and later loses his virginity when Emily decides to have pity sex with him. Thomas discovers that Pandora has been cheating on him, and while high on JJ's medication, Cook reveals to Freddie that Effy loves Freddie and not him. In Effy's episode, she has nothing: her Queen Bee status has been usurped by Katie, sex with Cook means nothing, and her home life is a wreck. She finally feels something when she has sex with Freddie, but after being tormented by Katie, an intoxicated Effy hits her with a rock. Katie is recovering in "Katie and Emily" but her relationship with her sister is falling apart. However, at the college ball, Emily is able to assert herself and Naomi confesses she loves Emily back. Thomas and Pandora also reunite. The finale, also an "Everyone" episode, sees Cook and Effy hiding out with Cook's father (Matt King). JJ tracks them down however, and forces Effy to confess it is Freddie that she loves, but Cook is adamant he loves her too. Freddie closes the series, asking "What do we do now?".

###################################################################################

INFORMATION - *ALL EPISODES ARE THE SAME!!*

*General*
Format                           : MPEG-PS
File size                        : 1 024 MiB
Duration                         : 25mn 59s
Overall bit rate                 : 5 509 Kbps

*Video*
ID                               : 224 (0xE0)
Format                           : MPEG Video
Format version                   : Version 2
Format profile                   : Main@Main
Format settings, BVOP            : Yes
Format settings, Matrix          : Default
Format settings, GOP             : M=2, N=12
Duration                         : 25mn 59s
Bit rate mode                    : Variable
Bit rate                         : 5 176 Kbps
Nominal bit rate                 : 9 800 Kbps
Width                            : 720 pixels
Height                           : 576 pixels
Display aspect ratio             : 16:9
Frame rate                       : 25.000 fps
Standard                         : PAL
Color space                      : YUV
Chroma subsampling               : 4:2:0
Bit depth                        : 8 bits
Scan type                        : Interlaced
Scan order                       : Top Field First
Compression mode                 : Lossy
Bits/(Pixel*Frame)               : 0.499
Stream size                      : 962 MiB (94%)

*Audio*
ID                               : 128 (0x80)
Format                           : AC-3
Format/Info                      : Audio Coding 3
Mode extension                   : CM (complete main)
Duration                         : 25mn 59s
Bit rate mode                    : Constant
Bit rate                         : 224 Kbps
Channel(s)                       : 2 channels
Channel positions                : Front: L R
Sampling rate                    : 48.0 KHz
Bit depth                        : 16 bits
Compression mode                 : Lossy
Stream size                      : 41.6 MiB (4%)

###################################################################################

NOTES:

THIS IS A DIRECT RIP OFF MY VERY OWN RETAIL DISC, AND HAS IN NO WAY BEEN EDITED, ENCODED, CONVERTED, RENAMED OR MANIPULATED IN ANYWAY!

THIS UPLOAD - 
* REGION FREE (NOT LOCKED)
* INCLUDES ALL MENUS
* HAS NO SUBTITLES (RETAIL DISC HAS NONE)
* IS IN ENGLISH AND IS FULLY SPOKEN IN ENGLISH
* HAS NO VIRUS, TROJAN, SPYWARE OR ANY OTHER TYPE OF MALICIOUS CONTENTS (AND IF ANYONE SAYS IT DOES THAN YOU ARE A COMPLETE FUCKHEAD!)

Thank you and please enjoy... remember to buy it if you like it!

###################################################################################